<svg width="24" height="24" viewBox="0 0 24 24" fill="none" xmlns="http://www.w3.org/2000/svg">
<path d="M12.806 15.687C12.7845 15.8003 12.7445 15.9136 12.7443 16.0269C12.7405 17.781 12.7457 19.5351 12.7351 21.2892C12.7342 21.439 12.6365 21.5882 12.5838 21.7378C12.4278 21.6731 12.2335 21.6477 12.1217 21.5381C10.1664 19.6207 8.22349 17.6907 6.27026 15.7712C6.07707 15.5814 5.99863 15.3884 6.00002 15.1178C6.00938 13.2959 6.0032 11.4739 6.00205 9.65186C6.00169 9.08075 6.0225 9.06024 6.59484 9.06314C6.7193 9.06377 6.84376 9.06291 7.02411 9.06117C7.13288 9.05491 7.18576 9.05019 7.23864 9.04548C8.66644 9.05146 10.0942 9.05743 11.5792 9.06117C11.622 8.99487 11.6076 8.93082 11.5933 8.86676C10.4618 7.73684 9.3302 6.60691 8.21865 5.45434C8.40162 5.3643 8.5646 5.29691 8.74838 5.23883C9.20133 5.6788 9.63297 6.10996 10.0657 6.54C10.8821 7.35129 11.6991 8.16194 12.5248 8.99068C12.5573 9.01711 12.5808 9.02572 12.6286 9.04398C12.7043 9.04883 12.7557 9.04403 12.83 9.04498C12.8838 9.04674 12.9147 9.04276 12.9767 9.04599C14.7763 9.04728 16.5448 9.04136 18.3346 9.03708C18.365 9.01468 18.3742 8.99065 18.388 8.93505C18.3903 7.15725 18.3881 5.41101 18.3871 3.63542C18.2852 3.58462 18.182 3.54449 18.0788 3.54443C14.5003 3.54234 10.9218 3.54392 7.34329 3.54594C7.27191 3.54598 7.20053 3.55743 7.15682 3.56118C7.4204 3.84461 7.68066 4.12448 7.95622 4.4245C8.03726 4.51666 8.03888 4.52916 8.10685 4.59712C8.0049 4.76703 7.83328 4.84188 7.69907 4.93694C7.25966 4.50074 6.82451 4.09217 6.39982 3.64207C6.29155 3.52732 6.25757 3.34247 6.18946 3.18983C6.34661 3.12883 6.50362 3.01498 6.66093 3.01456C10.4031 3.00459 14.1453 3.00683 17.8875 3.00673C18.1023 3.00672 18.3189 2.98865 18.5312 3.01176C18.6543 3.02517 18.7702 3.10406 18.9063 3.20361C18.9263 3.47919 18.9318 3.70463 18.9322 3.93008C18.9352 5.74539 18.9372 7.56071 18.9395 9.37602C18.8987 9.43259 18.858 9.48916 18.7711 9.5633C16.8784 9.58086 15.0319 9.58086 13.1853 9.58086C13.1803 9.60657 13.1753 9.63228 13.1703 9.65799C13.2954 9.76842 13.4205 9.87884 13.5456 9.98926C15.1554 11.6061 16.7678 13.2205 18.3714 14.8435C18.5489 15.0231 18.9038 15.1966 18.7279 15.4841C18.6381 15.6308 18.2762 15.6421 18.0338 15.6573C17.606 15.6841 17.1755 15.6669 16.6922 15.6701C16.6068 15.6765 16.5753 15.681 16.5437 15.6855C15.5692 15.6797 14.5947 15.6739 13.5588 15.6695C13.2669 15.6762 13.0365 15.6816 12.806 15.687ZM6.54566 9.77735C6.54896 11.5913 6.55226 13.4052 6.55343 15.2655C6.66423 15.3713 6.77502 15.4771 6.90667 15.6217C8.65451 17.3482 10.4023 19.0747 12.2042 20.8545C12.2042 20.7142 12.2042 20.6609 12.2042 20.6076C12.2026 18.9675 12.201 17.3273 12.1995 15.6872C12.199 15.1349 12.2155 15.1228 12.7754 15.1209C13.9168 15.117 15.0582 15.1085 16.2593 15.118C16.4031 15.1126 16.5468 15.1072 16.7504 15.1213C17.0926 15.1213 17.4348 15.1213 17.7903 15.1213C17.7697 15.0494 17.7702 15.0244 17.758 15.0122C16.0723 13.3326 14.3857 11.654 12.6774 9.93288C12.5066 9.82031 12.337 9.61213 12.1647 9.60989C10.3567 9.58633 8.54818 9.59455 6.73984 9.60097C6.67762 9.60119 6.61567 9.67471 6.54566 9.77735Z" fill="currentColor"/>
<path d="M7.69922 4.93747C7.80116 4.83553 7.98023 4.72057 8.107 4.59766C8.32632 4.78578 8.61238 5.0952 8.78662 5.27728C8.62365 5.34467 8.43171 5.41336 8.24292 5.48117C8.06769 5.33485 7.862 5.10218 7.69922 4.93747Z" fill="currentColor"/>
</svg>
