<svg width="24" height="24" viewBox="0 0 24 24" fill="none" xmlns="http://www.w3.org/2000/svg">
<rect x="2.62719" y="2.62719" width="18.9066" height="18.587" rx="3.03571" stroke="currentColor" stroke-width="0.745612"/>
<path d="M15.7406 9.72656C15.7406 9.72656 15.73 9.73178 15.7595 9.7351C16.4099 9.73906 17.0307 9.73971 17.6505 9.73704C17.6494 9.73373 17.6451 9.7392 17.6575 9.74911C17.7204 9.7968 17.7709 9.83459 17.8243 9.89714C17.831 10.3298 17.8378 10.7377 17.8378 11.1456C17.8377 12.9374 17.8363 14.7292 17.8337 16.5209C17.8333 16.8348 17.776 16.8993 17.4965 16.9009C16.9821 16.9039 16.4672 16.9117 15.9534 16.8943C15.8293 16.8901 15.7082 16.7952 15.5871 16.7279C15.584 16.7055 15.5795 16.6972 15.5766 16.664C15.5767 16.3028 15.5745 15.9665 15.574 15.6303C15.5712 13.781 15.5687 11.9318 15.5716 10.0629C15.6048 9.957 15.6325 9.87066 15.6602 9.78433C15.6602 9.78433 15.6524 9.78105 15.6699 9.77874C15.7051 9.75981 15.7229 9.74319 15.7406 9.72656ZM17.4056 10.9105C17.4056 10.6652 17.4056 10.42 17.4056 10.1697C16.9239 10.1697 16.4703 10.1697 16.019 10.1697C16.019 12.2788 16.019 14.3669 16.019 16.4578C16.4879 16.4578 16.9428 16.4578 17.4057 16.4578C17.4057 14.6141 17.4057 12.7889 17.4056 10.9105Z" fill="currentColor"/>
<path d="M17.608 9.01661C17.5763 9.04193 17.5445 9.06726 17.4928 9.10985C17.462 9.14118 17.4511 9.15524 17.4403 9.16929C17.4403 9.16929 17.4459 9.17067 17.4316 9.17124C17.403 9.18468 17.3888 9.19755 17.3746 9.21041C17.3746 9.21041 17.3843 9.21356 17.3618 9.2167C17.2241 9.26134 17.1113 9.31113 16.9935 9.34286C16.548 9.46293 16.1668 9.30034 15.8048 9.06132C15.8048 9.06132 15.8041 9.06615 15.8013 9.05227C15.7824 9.02793 15.7663 9.01747 15.7502 9.00701C15.7502 9.00701 15.7499 9.01176 15.7452 8.99401C15.6548 8.84428 15.569 8.7123 15.4833 8.58031C15.4833 8.58031 15.4833 8.55835 15.4871 8.52387C15.3951 7.95471 15.5439 7.50693 15.9648 7.15589C15.9648 7.15589 15.9611 7.15448 15.9764 7.15292C16.0057 7.1361 16.0197 7.12084 16.0337 7.10558C16.1061 7.07324 16.1785 7.0409 16.2871 6.99781C17.1513 6.78298 17.7678 7.19001 17.9433 8.07877C17.9417 8.13848 17.9436 8.17843 17.9403 8.23112C17.9376 8.25269 17.94 8.26153 17.9376 8.29116C17.9222 8.38221 17.9117 8.45248 17.9012 8.52274C17.9012 8.52274 17.9085 8.52533 17.8967 8.53487C17.8551 8.61877 17.8253 8.69312 17.7956 8.76747C17.7956 8.76747 17.7891 8.77319 17.7772 8.78924C17.7128 8.87572 17.6604 8.94617 17.608 9.01661ZM17.0815 8.80702C17.0815 8.80702 17.0824 8.81181 17.1212 8.80892C17.2161 8.68464 17.3111 8.56036 17.4011 8.43396C17.4011 8.43396 17.4026 8.43902 17.4421 8.42343C17.6665 7.83983 17.2166 7.28134 16.5834 7.36773C16.2581 7.41211 16.0336 7.59824 15.9338 7.91589C15.8344 8.23195 15.9341 8.57841 16.1984 8.77167C16.4355 8.9451 16.6935 9.06532 17.0024 8.85978C17.0024 8.85978 17.024 8.85447 17.055 8.86228C17.0655 8.84409 17.0759 8.8259 17.0815 8.80702Z" fill="currentColor"/>
<path d="M12.2229 15.7574C12.2229 15.7574 12.2216 15.7345 12.2247 15.706C12.2232 15.6538 12.2187 15.6301 12.2142 15.5867C12.1605 15.4201 12.1067 15.2731 12.0521 15.1062C11.9787 14.9647 12.0287 14.7585 11.7817 14.7618C10.952 14.7729 10.1221 14.77 9.27504 14.767C9.21853 14.7947 9.17926 14.8279 9.13278 14.8733C9.12566 14.8949 9.12576 14.9043 9.11737 14.9233C9.10889 14.9328 9.10953 14.9583 9.09984 14.9703C9.08523 15.0124 9.08031 15.0425 9.06668 15.0845C9.05162 15.1246 9.04528 15.1528 9.03112 15.1965C9.01232 15.2566 9.00133 15.3012 8.99034 15.3459C8.99034 15.3459 8.97871 15.3581 8.97223 15.3824C8.83895 15.8079 8.70812 16.2078 8.58714 16.6107C8.53137 16.7965 8.43213 16.8872 8.22635 16.8835C7.70403 16.874 7.18141 16.8822 6.65891 16.8815C6.24051 16.8808 6.17753 16.7868 6.31054 16.3854C6.59656 15.5222 6.87957 14.658 7.16381 13.7942C7.16381 13.7942 7.17231 13.7869 7.18424 13.7668C7.24349 13.5876 7.29081 13.4286 7.33813 13.2695C7.33813 13.2695 7.33029 13.2698 7.34504 13.2597C7.88932 11.663 8.41884 10.0765 8.94836 8.48996C8.94836 8.48996 8.94713 8.48451 8.95642 8.47089C9.03113 8.25106 9.09655 8.04485 9.17194 7.82406C9.23609 7.69243 9.29027 7.57538 9.36894 7.45331C9.48965 7.44284 9.58581 7.43362 9.68207 7.43255C10.314 7.42547 10.946 7.42015 11.5953 7.4224C11.8147 7.42255 11.8814 7.55997 11.935 7.721C12.1359 8.32427 12.3359 8.92791 12.5451 9.52836C12.9481 10.6857 13.3571 11.8409 13.7636 12.9971C13.7754 13.0406 13.7872 13.0841 13.8086 13.162C14.1291 14.0768 14.4399 14.9572 14.7507 15.8377C14.7507 15.8377 14.7517 15.8412 14.7556 15.8622C14.8172 16.0423 14.8748 16.2015 14.9337 16.3815C15.0645 16.7962 15.008 16.8768 14.5941 16.8789C14.0707 16.8817 13.5468 16.8673 13.0243 16.8885C12.7438 16.8999 12.6071 16.7983 12.5302 16.532C12.4534 16.2664 12.3273 16.015 12.2229 15.7574ZM7.36531 14.629C7.33502 14.7241 7.30474 14.8192 7.25651 14.9467C7.24016 15.0056 7.22381 15.0644 7.18253 15.1526C7.03878 15.5803 6.89503 16.0081 6.74385 16.4579C6.86472 16.4522 6.95991 16.4477 7.0999 16.4517C7.19089 16.4492 7.28188 16.4466 7.42188 16.4534C7.6075 16.455 7.79371 16.448 7.97855 16.4608C8.12525 16.4709 8.20152 16.4316 8.23669 16.2757C8.28702 16.0527 8.36188 15.8345 8.43658 15.6179C8.58272 15.194 8.73599 14.7726 8.87702 14.3449C8.87702 14.3449 8.875 14.3554 8.9229 14.3441C9.72905 14.3427 10.5352 14.3392 11.3413 14.3409C11.6328 14.3415 11.9242 14.3544 12.2312 14.3876C12.2636 14.4385 12.2959 14.4895 12.3255 14.5755C12.3491 14.6407 12.3726 14.7059 12.3948 14.7816C12.3948 14.7816 12.4017 14.7896 12.4094 14.8275C12.593 15.369 12.7766 15.9105 12.9577 16.4447C13.4735 16.4447 13.9646 16.4447 14.5133 16.4447C14.4138 16.2468 14.3307 16.0815 14.2457 15.8938C14.2457 15.8938 14.2398 15.8721 14.2525 15.8314C14.2268 15.7382 14.206 15.6433 14.1746 15.5521C14.0067 15.0645 13.8384 14.5771 13.6661 14.091C13.3841 13.2955 13.0989 12.501 12.8139 11.7126C12.8139 11.7126 12.8206 11.7123 12.8185 11.6777C12.8129 11.6558 12.8073 11.6339 12.8024 11.5718C12.4852 10.679 12.168 9.7863 11.8512 8.86192C11.8354 8.83653 11.8196 8.81114 11.8015 8.7434C11.7223 8.49125 11.6533 8.23509 11.5569 7.98968C11.5321 7.92654 11.4225 7.86147 11.3494 7.85854C11.0051 7.84474 10.66 7.85044 10.3152 7.85281C10.0945 7.85433 9.82146 7.78506 9.66838 7.88927C9.52095 7.98963 9.4966 8.27185 9.42068 8.4751C9.409 8.50637 9.4108 8.54267 9.38691 8.611C9.03913 9.63797 8.68817 10.6639 8.34472 11.6923C8.11921 12.3676 7.90456 13.0465 7.65877 13.7471C7.65256 13.7809 7.64635 13.8147 7.62042 13.8819C7.56845 14.0398 7.51647 14.1978 7.43931 14.3809C7.43347 14.4156 7.42763 14.4504 7.40102 14.5077C7.39435 14.5367 7.38768 14.5657 7.36531 14.629Z" fill="currentColor"/>
<path d="M10.3175 9.21743C10.3439 9.18979 10.3703 9.16215 10.4257 9.12044C10.5273 9.10762 10.5999 9.10887 10.6725 9.11012C10.6725 9.11012 10.676 9.10803 10.6842 9.12425C10.7382 9.25194 10.7928 9.36067 10.8281 9.47532C10.9668 9.92551 11.0995 10.3776 11.2344 10.8289C11.2344 10.8289 11.2314 10.8293 11.2338 10.8512C11.4273 11.4974 11.6195 12.1213 11.8089 12.746C11.8964 13.0344 11.8513 13.0989 11.5528 13.1002C10.8898 13.103 10.2268 13.1019 9.56378 13.0997C9.29122 13.0988 9.24236 13.0288 9.30636 12.7572C9.35867 12.5352 9.40682 12.3123 9.45681 12.0897C9.45681 12.0897 9.45206 12.09 9.4713 12.0839C9.76621 11.1243 10.0419 10.1709 10.3175 9.21743ZM10.7049 10.5934C10.6587 10.4396 10.6125 10.2858 10.5544 10.0926C10.2881 10.9799 10.0371 11.8164 9.78422 12.6591C10.3051 12.6591 10.8053 12.6591 11.3274 12.6591C11.121 11.9705 10.9206 11.3019 10.7049 10.5934Z" fill="currentColor"/>
</svg>
