<svg width="24" height="24" viewBox="0 0 24 24" fill="none" xmlns="http://www.w3.org/2000/svg">
<path d="M20.7778 16.8735C20.9338 17.1341 20.7915 17.3046 20.6235 17.4353C19.7662 18.1021 18.9167 18.7808 18.0316 19.4091C17.5118 19.7781 16.9306 20.0607 16.3754 20.3831C16.7248 20.6864 17.1988 20.7037 17.6109 20.4041C17.837 20.2397 18.0345 20.0364 18.2465 19.8524C19.0823 19.1268 19.7791 19.1188 20.6239 19.832C21.0323 20.1768 21.3923 20.5909 21.9806 20.6484C22.0517 20.6553 22.1622 20.8387 22.1525 20.9293C22.1429 21.0191 21.9869 21.1764 21.9249 21.1632C21.6135 21.0973 21.2862 21.0307 21.0136 20.8771C20.7125 20.7073 20.4678 20.4391 20.1931 20.2206C19.619 19.7637 19.2278 19.7705 18.6603 20.247C18.4811 20.3975 18.316 20.5646 18.1373 20.7156C17.3672 21.3658 16.641 21.3793 15.8553 20.7532C15.6267 20.571 15.4186 20.3633 15.1916 20.179C14.7058 19.7844 14.2787 19.7895 13.8025 20.1906C13.5431 20.4091 13.3036 20.6538 13.0307 20.8534C12.3764 21.3319 11.7053 21.3239 11.053 20.8389C10.7811 20.6368 10.5365 20.3982 10.2674 20.192C9.71921 19.7718 9.38198 19.7807 8.85786 20.2197C8.63362 20.4075 8.42647 20.6161 8.19864 20.7992C7.56875 21.3053 6.89142 21.3585 6.22205 20.9044C5.83747 20.6435 5.48563 20.3258 5.15365 19.9985C4.89229 19.7409 4.64639 19.6895 4.35308 19.901C4.04111 20.1261 3.74185 20.3692 3.42468 20.5864C3.12844 20.7892 2.82772 20.9927 2.50594 21.1482C2.33444 21.2311 2.08116 21.2439 2.01289 20.9804C1.94632 20.7236 2.1493 20.6535 2.35353 20.5869C2.50542 20.5373 2.65585 20.4575 2.78175 20.3589C3.13993 20.0786 3.48523 19.7818 3.85825 19.4727C3.72171 19.1818 3.58383 18.8868 3.44493 18.5923C3.22541 18.1269 3.30435 17.9774 3.81639 17.9387C4.85529 17.8603 5.89495 17.7918 6.93433 17.7197C10.566 17.468 14.1976 17.2161 17.8293 16.9653C18.6701 16.9072 19.5109 16.8499 20.3523 16.8017C20.4855 16.794 20.6216 16.8368 20.7778 16.8735ZM9.48586 19.3154C9.97671 19.284 10.3656 19.5031 10.7192 19.8133C10.9477 20.0138 11.1664 20.2293 11.4141 20.4028C11.8459 20.705 12.2891 20.6879 12.7157 20.3767C12.8663 20.2668 13.0039 20.1379 13.1411 20.0109C14.1429 19.0825 14.7575 19.0637 15.8043 19.9318C15.8213 19.946 15.8462 19.9507 15.8722 19.9618C17.2435 19.2686 18.5526 18.4761 19.8081 17.4122C14.4953 17.7826 9.2881 18.1456 4.04028 18.5114C4.16002 18.7823 4.25671 19.001 4.34925 19.2103C4.93848 19.1221 5.11852 19.1881 5.5471 19.5917C5.82763 19.856 6.10089 20.1357 6.41483 20.3549C6.96766 20.7409 7.43132 20.698 7.9476 20.2644C8.18041 20.0688 8.38413 19.8318 8.63665 19.6686C8.87482 19.5148 9.15973 19.4333 9.48586 19.3154Z" fill="currentColor"/>
<path d="M4.83643 17.0831C4.51937 16.8562 4.68809 16.6454 4.83293 16.4447C5.58038 15.4087 6.12093 14.2748 6.4105 13.031C7.0407 10.3239 6.66383 7.7114 5.61754 5.1734C5.39094 4.62373 5.10863 4.09678 4.8451 3.56275C4.75602 3.38224 4.6081 3.17422 4.82707 3.03815C4.94345 2.96583 5.18499 3.00597 5.32792 3.07842C8.27986 4.57478 10.5863 6.78399 12.3943 9.533C13.6744 11.4794 14.5403 13.5957 14.9365 15.8958C14.9635 16.0528 14.9606 16.2896 14.8678 16.3711C14.7804 16.4479 14.5384 16.4106 14.3941 16.3512C12.8933 15.7337 11.3439 15.3857 9.71283 15.4576C8.10571 15.5285 6.66009 16.0838 5.30489 16.9179C5.17186 16.9998 5.00935 17.0337 4.83643 17.0831ZM5.78035 3.94829C5.76469 3.97996 5.74903 4.01164 5.75069 4.09124C6.43391 5.56177 6.95057 7.08299 7.15386 8.69968C7.45761 11.1152 7.19435 13.4379 6.02439 15.6129C5.98014 15.6951 5.94921 15.7846 5.88279 15.9386C8.6979 14.4928 11.4893 14.6386 14.3351 15.7045C14.2972 15.5163 14.2748 15.3925 14.2473 15.2697C13.6985 12.8205 12.6149 10.6224 11.0864 8.64444C9.62692 6.75579 7.91119 5.14726 5.78035 3.94829Z" fill="currentColor"/>
<path d="M13.1377 7.98828C13.448 8.41239 13.8033 8.93084 14.0498 9.3584C14.0491 9.35926 14.0476 9.3595 14.0469 9.36035C14.3232 9.82193 14.5698 10.2969 14.7891 10.7637C14.6325 10.8615 14.4994 10.9877 14.3672 11.0801C14.1367 10.6571 13.9024 10.1871 13.668 9.73926C13.6664 9.74111 13.6646 9.74326 13.6631 9.74512C13.3631 9.29265 12.99 8.70861 12.6797 8.23438C12.8 8.11849 12.9611 8.07134 13.1377 7.98828Z" fill="currentColor"/>
<path d="M10.0891 5.31688C10.1708 5.07825 10.3953 5.17308 10.5686 5.24266C11.6679 5.68402 12.6285 6.34848 13.4904 7.14696C16.0793 9.54545 17.8507 12.4611 18.8918 15.8247C18.9348 15.9637 18.9378 16.1871 18.8567 16.271C18.7852 16.3439 18.5503 16.3196 18.4201 16.2632C17.7621 15.977 17.0948 15.8005 16.3752 15.9809C16.0878 16.0528 16.0474 15.8357 15.9885 15.645C15.7267 14.7976 15.4684 13.9487 15.2043 13.102C15.1419 12.902 15.0621 12.7063 15.0041 12.4643V12.4634C14.7924 12.0401 14.565 11.5446 14.3674 11.0874C14.4971 10.9696 14.5831 10.7808 14.7551 10.7007C14.9916 11.1701 15.2607 11.7541 15.4572 12.2114C15.4562 12.2121 15.4544 12.2127 15.4533 12.2134C15.4545 12.2129 15.456 12.2129 15.4572 12.2124C15.8318 13.2882 16.1812 14.3114 16.5168 15.3052C17.0942 15.3658 17.6436 15.4235 18.2004 15.4819C17.5387 13.4946 16.5662 11.6425 15.2824 9.95946C14.559 9.01103 13.8045 8.08474 12.8283 7.34813C12.7997 7.32226 12.778 7.31216 12.7473 7.2827C12.6983 7.25856 12.6579 7.25363 12.5324 7.23973C12.6411 7.3054 12.6768 7.32647 12.717 7.3618C12.7338 7.39481 12.7482 7.41078 12.7776 7.44383C12.9199 7.64942 13.0496 7.83518 13.1535 8.02098C12.9968 8.11585 12.8661 8.21014 12.7356 8.30418C12.0032 7.36144 11.2244 6.46507 10.2551 5.74949C10.1461 5.66874 10.0497 5.43252 10.0891 5.31688Z" fill="currentColor"/>
</svg>
