<svg width="24" height="24" viewBox="0 0 24 24" fill="none" xmlns="http://www.w3.org/2000/svg">
<path d="M16.4747 6.26713C16.4377 6.50571 16.3525 6.76783 16.276 6.993C15.22 10.1013 14.1516 13.2053 13.0914 16.3122C12.6095 17.7243 12.1313 19.1379 11.6687 20.5564C11.5605 20.8881 11.4048 21.0447 11.0329 21.0281C10.386 20.9992 9.73693 21.0206 9.08875 21.0205C8.53348 21.0204 8.45536 20.9288 8.56724 20.377C8.94309 18.523 9.32257 16.6698 9.70095 14.8164C10.1838 12.4511 10.6681 10.086 11.1477 7.72004C11.1794 7.56365 11.1769 7.40034 11.1199 7.23268C10.8965 7.83291 10.673 8.43314 10.4051 9.0535C10.1777 9.0735 9.99477 9.07336 9.81395 9.04485C10.0149 8.44229 10.2138 7.86809 10.4323 7.27441C10.5911 7.16196 10.7303 7.06899 10.8876 6.97999C10.9058 6.98397 10.9427 6.9796 10.9628 6.97582C11.1437 6.82505 11.3044 6.67806 11.4853 6.5473C11.6444 6.87103 11.899 7.11787 11.8147 7.52368C11.0469 11.218 10.2956 14.9158 9.54225 18.6131C9.42185 19.204 9.31494 19.7977 9.19524 20.4243C9.71007 20.4243 10.1706 20.4029 10.628 20.4316C10.9552 20.452 11.0936 20.3478 11.2026 20.0252C12.6957 15.6034 14.2059 11.1875 15.7202 6.77293C15.7901 6.56893 15.7427 6.46568 15.5899 6.33586C14.2123 5.1647 12.8417 3.98518 11.4679 2.80949C11.3932 2.7456 11.3093 2.64607 11.2277 2.64415C10.6278 2.63001 10.0273 2.63651 9.38394 2.63651C9.9362 3.66916 10.5503 4.75679 11.0473 5.7431C10.8762 5.85166 10.6699 5.90801 10.5232 6.00512C9.90218 4.87029 9.24224 3.66654 8.63075 2.52659C8.46149 2.21105 8.58529 2.01819 8.9457 2.01272C9.70662 2.00118 10.4683 1.99002 11.2285 2.01517C11.4038 2.02098 11.6001 2.14305 11.743 2.2635C13.2682 3.54901 14.8277 4.81536 16.3625 6.07998C16.3899 6.05904 16.3783 6.05151 16.3625 6.07998C16.3784 6.15304 16.4331 6.17553 16.4747 6.2297C16.4729 6.23176 16.4747 6.26713 16.4747 6.26713Z" fill="currentColor"/>
<path d="M16.4275 6.25712C16.3935 6.27845 16.4052 6.27908 16.4361 6.25515C16.4225 6.17973 16.378 6.12823 16.3335 6.07673C16.3335 6.07673 16.3365 6.08054 16.3378 6.08255C16.2875 5.97624 16.2462 5.86138 16.1826 5.76059C15.5245 4.71756 14.8572 3.68018 14.2089 2.63111C14.1284 2.50095 14.08 2.28461 14.1344 2.15932C14.1751 2.06568 14.4046 2.01568 14.5513 2.01299C15.2495 2.00018 15.9485 1.9997 16.6465 2.01945C16.8218 2.02441 17.0148 2.08718 17.1651 2.17959C18.6292 3.07965 20.0812 3.99932 21.5484 4.89412C21.8627 5.08582 21.9241 5.28234 21.8165 5.62757C20.2644 10.6058 18.7142 15.5847 17.195 20.573C17.0298 21.1154 16.6796 21.0002 16.2602 21.0237C15.8405 21.0306 15.4867 21.036 15.1329 21.0413C14.9469 21.0343 14.7609 21.0227 14.5748 21.021C14.0888 21.0163 14.0073 20.9225 14.0956 20.4332C14.3788 18.8655 14.663 17.2979 14.9507 15.7309C15.506 12.7077 16.0667 9.68549 16.611 6.66029C16.6341 6.53191 16.5146 6.37787 16.4275 6.25712ZM17.8558 3.32122C17.0146 2.57483 16.0197 2.52066 14.9351 2.67058C15.6332 3.76581 16.3012 4.84252 17.0025 5.89712C17.2213 6.2262 17.2843 6.52832 17.1866 6.90773C17.0721 7.35268 17.0122 7.81173 16.9295 8.26482C16.3123 11.6449 15.6944 15.0249 15.0794 18.4054C14.9599 19.0621 14.8526 19.7211 14.7328 20.4188C15.2599 20.4188 15.7436 20.398 16.2245 20.4264C16.5221 20.444 16.6235 20.3243 16.7054 20.0584C18.009 15.826 19.3233 11.5969 20.6355 7.36707C20.8369 6.718 21.04 6.06946 21.2419 5.4217C20.1025 4.71545 19.0019 4.0333 17.8558 3.32122Z" fill="currentColor"/>
<path d="M11.0102 6.97843C10.8711 7.0714 10.6305 7.21382 10.4488 7.31531C8.91849 5.84786 7.39316 4.31878 5.90092 2.84734C5.80213 2.74991 5.66156 2.63906 5.5363 2.63387C4.97882 2.61075 4.41983 2.62384 3.82738 2.62384C3.8665 2.72604 3.8884 2.79418 3.91793 2.85883C4.69864 4.56819 5.48584 6.27461 6.25383 7.98965C6.34417 8.1914 6.39955 8.4557 6.35303 8.66472C5.7606 11.3266 5.14603 13.9835 4.53829 16.642C4.25359 17.8873 3.9715 19.1333 3.67847 20.4219C4.21619 20.4219 4.71286 20.4092 5.20841 20.4272C5.458 20.4363 5.57154 20.3629 5.66269 20.1139C6.46721 17.9165 7.28708 15.7247 8.11079 13.5344C8.67102 12.0448 9.24479 10.524 9.81244 9.03713C9.99533 9.03727 10.2007 9.0359 10.4113 9.03713C9.79699 10.7622 9.13207 12.5237 8.49026 14.2478C7.70923 16.3458 6.92159 18.4414 6.15485 20.5447C6.02947 20.8886 5.86288 21.0443 5.48329 21.0284C4.82368 21.0008 4.16208 21.0233 3.50137 21.0181C3.01475 21.0143 2.93324 20.905 3.04328 20.4226C3.93439 16.5162 4.8282 12.6105 5.71037 8.70206C5.74743 8.53786 5.7209 8.33041 5.65159 8.1755C4.8337 6.34729 4.00124 4.5256 3.17436 2.70141C2.92078 2.14199 3.00677 2.00645 3.61109 2.00635C4.25937 2.00623 4.90807 2.02385 5.55571 2.00436C5.84934 1.99553 6.03839 2.11537 6.23515 2.31204C7.76028 3.83642 9.34537 5.33053 10.8979 6.8287C10.9205 6.81008 10.9189 6.80903 10.8979 6.8287C10.8905 6.88306 10.995 6.9427 11.0102 6.97843Z" fill="currentColor"/>
<path d="M10.4492 5.85577C10.5919 5.73237 10.7855 5.68392 10.9733 5.59375C11.1653 5.8925 11.3463 6.27515 11.4973 6.56696C11.3366 6.71394 11.1876 6.85663 11.0107 6.9787C10.9673 6.92357 10.8971 6.86237 10.8699 6.83216C10.8699 6.83216 10.8688 6.83028 10.8684 6.82931C10.7451 6.54765 10.5763 6.16275 10.4492 5.85577Z" fill="currentColor"/>
</svg>
