<svg width="24" height="24" viewBox="0 0 24 24" fill="none" xmlns="http://www.w3.org/2000/svg">
<rect x="2.45201" y="2.62388" width="19.0746" height="18.7522" rx="3.06269" stroke="currentColor" stroke-width="0.752239"/>
<path d="M17.6417 16.1637C17.6091 16.1838 17.5765 16.2039 17.5182 16.2437C16.1452 17.0641 14.778 16.9 13.4077 16.3371C13.3231 16.3023 13.2162 16.1844 13.2157 16.1047C13.2126 15.5166 13.2338 14.9283 13.2474 14.34C13.2766 14.3179 13.3058 14.2957 13.3635 14.2568C13.5131 14.2629 13.6344 14.2858 13.7557 14.3087C13.7557 14.3087 13.7587 14.3015 13.7638 14.3141C13.7879 14.3313 13.8069 14.336 13.8259 14.3407C13.8259 14.3407 13.8258 14.3369 13.8358 14.3523C13.9465 14.4123 14.0473 14.4569 14.148 14.5015C14.148 14.5015 14.148 14.4978 14.16 14.513C14.6435 14.6316 15.1124 14.7502 15.5879 14.8283C15.7223 14.8504 15.8761 14.7539 16.021 14.7118C16.021 14.7118 16.0337 14.6938 16.0519 14.6739C16.2036 14.4142 16.0799 14.2639 15.8764 14.1731C15.4491 13.9826 15.0139 13.81 14.5819 13.63C14.5818 13.6131 14.576 13.5985 14.5424 13.5691C14.4881 13.5401 14.4559 13.5282 14.4236 13.5162C14.4236 13.5162 14.4242 13.5231 14.4165 13.5074C14.1086 13.234 13.8084 12.9765 13.5083 12.719C13.5083 12.719 13.5059 12.7225 13.5052 12.7054C13.4729 12.6419 13.4413 12.5956 13.4096 12.5492C13.4096 12.5492 13.4067 12.5546 13.4057 12.5339C13.0401 11.6717 13.1665 10.8881 13.6981 10.1419C13.8599 9.99788 14.0067 9.86259 14.1719 9.72192C14.7197 9.38676 15.3 9.19878 15.9197 9.23487C16.4777 9.26736 17.0312 9.3773 17.597 9.46442C17.6373 9.48113 17.667 9.48652 17.7083 9.49925C17.7289 9.50685 17.7379 9.50711 17.7467 9.50532C17.7463 9.50327 17.7426 9.50506 17.7528 9.51793C17.7945 9.53853 17.826 9.54626 17.8573 9.55424C17.8572 9.5545 17.8577 9.55409 17.8664 9.56687C17.9012 9.59587 17.9272 9.61208 17.9538 9.62459C17.9544 9.62089 17.9471 9.62246 17.9521 9.64393C17.9752 10.1717 18.0001 10.6779 18.009 11.1844C18.0157 11.5604 17.8851 11.6287 17.5245 11.5132C17.0851 11.3725 16.6414 11.2273 16.1882 11.1555C15.9679 11.1206 15.7218 11.2482 15.4881 11.3033C15.4888 11.3042 15.4875 11.3024 15.4729 11.3143C15.3792 11.4851 15.4359 11.6126 15.5739 11.6911C15.7552 11.7942 15.9494 11.8746 16.1509 11.9696C16.1727 11.9739 16.1818 11.9733 16.2014 11.9841C16.2412 12.004 16.2704 12.0125 16.3115 12.032C16.3635 12.0572 16.4034 12.0716 16.4506 12.0995C16.4764 12.1176 16.4952 12.122 16.5257 12.1318C16.5375 12.1372 16.5624 12.1441 16.5723 12.1607C16.7358 12.2384 16.8895 12.2994 17.0442 12.3579C17.0453 12.3553 17.0401 12.3572 17.0495 12.3732C17.1814 12.4552 17.3039 12.5214 17.4312 12.5975C17.436 12.6075 17.4577 12.6123 17.4654 12.625C17.5076 12.6541 17.542 12.6707 17.5772 12.6837C17.578 12.6802 17.5708 12.6809 17.5773 12.6952C17.6016 12.7202 17.6193 12.731 17.6426 12.755C17.6785 12.7909 17.7089 12.8135 17.7448 12.8499C17.7675 12.8722 17.7845 12.8806 17.8016 12.8873C17.8016 12.8855 17.7992 12.8881 17.8074 12.9015C17.8465 12.9427 17.8773 12.9704 17.9092 12.9965C17.9102 12.9949 17.9063 12.9952 17.9091 13.0099C17.9279 13.0358 17.9437 13.0469 17.9597 13.0556C17.9598 13.053 17.9548 13.0541 17.9604 13.0689C18.0044 13.1328 18.0429 13.1819 18.0819 13.2297C18.0826 13.2284 18.0811 13.2306 18.0875 13.2496C18.315 13.6264 18.379 14.0264 18.3845 14.4348C18.3928 15.0573 18.1627 15.5941 17.7531 16.0576C17.7531 16.0576 17.7499 16.0563 17.7361 16.0637C17.6955 16.102 17.6686 16.1328 17.6417 16.1637ZM15.2101 10.9603C15.2227 10.9457 15.2353 10.931 15.2396 10.915C15.2396 10.915 15.242 10.9231 15.2718 10.9118C15.2959 10.8923 15.3199 10.8728 15.3394 10.8513C15.3394 10.8513 15.34 10.8563 15.3814 10.8486C15.6694 10.8062 15.9573 10.7637 16.2807 10.7317C16.305 10.7299 16.3294 10.728 16.3962 10.7385C16.788 10.8364 17.1798 10.9344 17.5768 11.0336C17.5768 10.7319 17.5712 10.4193 17.5793 10.1071C17.583 9.96512 17.5264 9.90595 17.3929 9.86528C16.8041 9.68591 16.2037 9.60641 15.5935 9.68079C15.1431 9.73568 14.6964 9.8287 14.3185 10.1511C14.3185 10.1511 14.3099 10.1698 14.2789 10.183C13.7621 10.5653 13.4762 11.3841 13.669 11.9484C13.6801 11.976 13.6911 12.0037 13.7054 12.0722C13.7808 12.2216 13.8562 12.371 13.9328 12.5426C13.9378 12.5585 13.9485 12.5678 13.9778 12.6024C14.0175 12.6425 14.0573 12.6826 14.1053 12.7497C14.1211 12.7588 14.1369 12.7679 14.1679 12.8065C14.2138 12.8358 14.2597 12.8652 14.3068 12.8897C14.3068 12.8897 14.3023 12.8918 14.3181 12.922C14.3671 12.9494 14.416 12.9769 14.4658 12.9992C14.4658 12.9992 14.4612 13.0016 14.4795 13.0306C14.5392 13.0629 14.5989 13.0953 14.6616 13.1276C14.6616 13.1276 14.6638 13.1298 14.6841 13.1497C14.7023 13.1539 14.7205 13.1582 14.7595 13.1908C14.8246 13.2159 14.8897 13.2409 14.9658 13.2834C14.9658 13.2834 14.9861 13.2863 14.9873 13.2859C14.9873 13.2859 14.9875 13.2848 15.0075 13.3056C15.0263 13.3087 15.045 13.3119 15.0696 13.3266C15.0696 13.3266 15.0822 13.3237 15.1079 13.3538C15.1808 13.382 15.2536 13.4102 15.324 13.4321C15.324 13.4321 15.3187 13.4361 15.3443 13.4641C15.6938 13.6521 16.0434 13.8402 16.4042 14.0158C16.4042 14.0158 16.3918 14.0271 16.4029 14.059C16.4382 14.1021 16.4735 14.1451 16.5094 14.2102C16.5094 14.2102 16.5224 14.2279 16.5219 14.2585C16.537 14.2848 16.552 14.311 16.5645 14.373C16.5691 14.3963 16.5738 14.4197 16.5697 14.4863C16.5385 14.9633 16.2739 15.214 15.7446 15.2529C15.0649 15.3028 14.4342 15.1218 13.8283 14.8309C13.7687 14.8023 13.7052 14.782 13.6299 14.7526C13.6299 14.9243 13.6309 15.0671 13.6297 15.2098C13.6225 16.0557 13.6195 16.0691 14.4657 16.2465C15.2235 16.4054 15.9863 16.4745 16.7692 16.1658C16.8638 16.1135 16.9584 16.0611 17.0874 16.004C17.1325 15.9701 17.1775 15.9361 17.2179 15.9C17.2179 15.9 17.219 15.905 17.2502 15.8975C17.2808 15.8684 17.3115 15.8394 17.3266 15.7878C17.3321 15.795 17.3377 15.8023 17.3736 15.7936C17.412 15.7394 17.4505 15.6851 17.4844 15.6294C17.4844 15.6294 17.4859 15.6339 17.5224 15.6253C17.8951 15.258 17.9666 14.7876 17.9511 14.2999C17.94 13.9531 17.8837 13.6088 17.5936 13.3653C17.5936 13.3653 17.5982 13.365 17.5882 13.3369C17.5719 13.3263 17.5557 13.3157 17.5389 13.3113C17.5389 13.3113 17.5451 13.3108 17.535 13.2826C17.5187 13.2721 17.5024 13.2615 17.4855 13.2572C17.4855 13.2572 17.4918 13.2567 17.4818 13.2285C17.4653 13.2179 17.4489 13.2074 17.432 13.2023C17.432 13.2023 17.4373 13.2015 17.4311 13.1644C17.1402 12.9821 16.8587 12.782 16.5559 12.6223C16.1858 12.427 15.7866 12.286 15.4206 12.0841C15.0077 11.8563 14.9308 11.6216 15.0656 11.1414C15.0848 11.1059 15.104 11.0704 15.1532 11.0174C15.1656 10.9983 15.178 10.9791 15.1802 10.9597C15.1802 10.9597 15.1821 10.9697 15.2101 10.9603Z" fill="currentColor"/>
<path d="M11.9746 12.0855C11.9746 12.0855 11.9611 12.1001 11.9474 12.121C11.9087 12.194 11.8836 12.246 11.8585 12.2981C11.8585 12.2981 11.8608 12.2986 11.8464 12.3063C11.7972 12.3672 11.7623 12.4205 11.7275 12.4738C11.7275 12.4738 11.7182 12.4788 11.7012 12.4919C11.0394 13.3168 10.1662 13.6914 9.16338 13.7971C8.74861 13.8408 8.3291 13.8396 7.89634 13.8595C7.89634 14.6986 7.89928 15.53 7.89329 16.3612C7.89235 16.4909 7.85075 16.6204 7.80428 16.7575C7.14917 16.7725 6.51775 16.7821 5.8863 16.7858C5.71142 16.7868 5.63208 16.6818 5.62987 16.5119C5.62652 16.254 5.62221 15.9961 5.62319 15.7134C5.62662 12.9469 5.62516 10.2052 5.63157 7.44765C5.6892 7.40591 5.73896 7.38 5.80959 7.35604C5.92428 7.34002 6.01811 7.32205 6.12976 7.30785C6.17116 7.30657 6.19473 7.30152 6.24211 7.30045C6.63892 7.27604 7.01152 7.24021 7.38497 7.22064C8.46488 7.16403 9.54142 7.1483 10.5868 7.57138C10.6441 7.5987 10.6858 7.61769 10.7361 7.65299C10.9355 7.78267 11.1261 7.89604 11.3181 8.00646C11.3195 8.00351 11.3142 8.00731 11.3206 8.02205C11.3611 8.0613 11.3952 8.08582 11.4299 8.10908C11.4305 8.10783 11.4282 8.10928 11.4342 8.12407C11.4726 8.16525 11.505 8.19165 11.5428 8.2322C11.5776 8.27299 11.6071 8.29961 11.6408 8.3417C11.6732 8.3885 11.7014 8.41985 11.7343 8.44801C11.7389 8.44483 11.732 8.45369 11.7379 8.4706C11.816 8.59624 11.8881 8.70498 11.9628 8.83323C12.4546 9.92899 12.44 11.0066 11.9746 12.0855ZM11.5879 11.8656C11.5975 11.8367 11.6072 11.8078 11.6024 11.7616C11.6024 11.7616 11.6153 11.7801 11.6406 11.7515C11.971 10.8432 12.0085 9.94487 11.5433 9.0705C11.5433 9.0705 11.5502 9.06614 11.5488 9.02925C11.5153 8.96751 11.4819 8.90576 11.4314 8.85765C11.4314 8.85765 11.4491 8.84497 11.4366 8.81721C11.4186 8.8082 11.4006 8.79919 11.384 8.77093C11.384 8.77093 11.3752 8.75375 11.3787 8.71953C11.344 8.69221 11.3094 8.66488 11.2733 8.64192C11.2733 8.64192 11.2777 8.64089 11.2683 8.61332C11.2525 8.60282 11.2368 8.59233 11.22 8.58637C11.22 8.58637 11.2245 8.58522 11.2174 8.54874C10.9279 8.34778 10.6617 8.09315 10.3446 7.95596C9.40536 7.54955 8.40288 7.60322 7.40951 7.64819C6.96536 7.6683 6.52257 7.71862 6.07706 7.75541C6.07706 10.6389 6.07706 13.4893 6.07706 16.348C6.54343 16.348 6.99406 16.348 7.46264 16.348C7.46264 15.3805 7.46264 14.4324 7.48545 13.4743C7.49836 13.4628 7.50644 13.4485 7.55905 13.4194C7.69149 13.4164 7.82412 13.417 7.95635 13.4099C8.46167 13.383 8.97402 13.3969 9.4704 13.3148C10.1843 13.1968 10.8336 12.914 11.3104 12.2982C11.3232 12.2874 11.3289 12.2737 11.3572 12.2393C11.3853 12.1901 11.4135 12.1409 11.4351 12.0893C11.4351 12.0893 11.4396 12.0947 11.4672 12.0794C11.4809 12.0513 11.4947 12.0232 11.4848 11.9764C11.4927 11.9826 11.5007 11.9888 11.5323 11.9758C11.5434 11.9476 11.5544 11.9194 11.5565 11.8851C11.5565 11.8851 11.567 11.888 11.5879 11.8656Z" fill="currentColor"/>
<path d="M7.45891 12.1246C7.45891 12.1246 7.46029 12.1038 7.45886 12.0695C7.45535 11.0129 7.45326 9.99068 7.45117 8.96845C7.45117 8.96845 7.4648 8.96109 7.47818 8.94626C7.5158 8.90843 7.54003 8.88542 7.56427 8.86241C7.56427 8.86241 7.56186 8.86065 7.58598 8.85951C7.72538 8.85056 7.84056 8.84034 7.95596 8.83534C8.57941 8.80833 9.20314 8.7812 9.77489 9.10437C9.77489 9.10437 9.78149 9.11524 9.79852 9.12714C9.85017 9.1599 9.88477 9.18075 9.91938 9.2016C9.97808 9.26441 10.0368 9.32722 10.1155 9.41315C10.1704 9.48087 10.2052 9.52548 10.24 9.57008C10.24 9.57008 10.2423 9.56554 10.2438 9.58549C10.3135 9.84196 10.4232 10.0752 10.4423 10.3156C10.5062 11.1158 10.1277 11.932 9.22127 12.1237C8.76662 12.2199 8.28945 12.2172 7.82153 12.2375C7.70251 12.2426 7.57988 12.1645 7.45891 12.1246ZM9.20342 9.32788C8.77463 9.28988 8.34585 9.25187 7.91846 9.21399C7.91846 10.1181 7.91846 10.9439 7.91846 11.8455C8.38789 11.7816 8.83773 11.767 9.25976 11.6511C9.77546 11.5095 10.0309 11.0416 10.0211 10.4313C10.0122 9.8752 9.76375 9.52574 9.20342 9.32788Z" fill="currentColor"/>
</svg>
