<svg width="24" height="24" viewBox="0 0 24 24" fill="none" xmlns="http://www.w3.org/2000/svg">
<path d="M5.08004 5.27466C5.08004 5.27466 5.08974 5.25698 5.10299 5.24215C5.1261 5.21112 5.13594 5.19491 5.14579 5.1787C5.14579 5.1787 5.1407 5.17663 5.15761 5.17215C5.26826 5.053 5.362 4.93832 5.45573 4.82365C5.45573 4.82365 5.44704 4.81568 5.46667 4.81431C5.61302 4.66259 5.73973 4.51223 5.8618 4.3578C5.85716 4.35375 5.86479 4.36343 5.88086 4.35687C6.03845 4.24292 6.17996 4.13554 6.34515 4.02721C6.49632 4.01771 6.6238 4.00178 6.75129 4.0017C9.09166 4.00023 11.432 3.9989 13.7724 4.00139C15.0363 4.00273 16.3002 4.01126 17.5771 4.02565C17.7047 4.1088 17.8193 4.18286 17.9413 4.27295C18.0387 4.38592 18.1285 4.48285 18.2217 4.59109C18.225 4.60239 18.2461 4.61287 18.2528 4.62668C18.5204 4.92834 18.7813 5.2162 19.0428 5.5031C19.0434 5.50213 19.0424 5.50417 19.0424 5.50417C19.4559 5.98073 19.8685 6.45802 20.2831 6.93365C20.7714 7.49402 21.2567 8.05718 21.7533 8.61017C21.9255 8.8019 21.9152 8.95749 21.7512 9.14412C20.7641 10.2672 19.7777 11.391 18.7991 12.5215C16.6296 15.0279 14.4647 17.5383 12.2981 20.0472C12.0512 20.3331 11.8955 20.3288 11.6153 20.0058C10.6412 18.8826 9.67273 17.7546 8.69865 16.6314C7.60143 15.3663 6.49956 14.1052 5.40135 12.8409C4.43508 11.7285 3.47059 10.6146 2.50651 9.50027C2.3364 9.30365 2.1722 9.10192 2.0011 8.88452C1.99693 8.86649 2.00472 8.84492 2.02278 8.82538C2.06514 8.72415 2.08943 8.64247 2.11371 8.56079C2.11371 8.56079 2.13647 8.55878 2.16264 8.55642C2.21434 8.52292 2.23987 8.49179 2.28223 8.45296C2.57969 8.13024 2.86033 7.81521 3.15249 7.49538C3.17272 7.4687 3.18143 7.44681 3.20273 7.4239C3.21533 7.42288 3.22575 7.39986 3.23425 7.39602C3.25855 7.35607 3.27437 7.31996 3.30605 7.2768C3.38623 7.20343 3.45056 7.13712 3.52898 7.06254C3.78655 6.7798 4.03156 6.50668 4.27306 6.23049C4.51594 5.95271 4.75533 5.67188 4.99625 5.39238C4.99625 5.39238 4.98505 5.38065 5.00251 5.38162C5.02825 5.36658 5.03653 5.35057 5.04481 5.33456C5.04481 5.33456 5.03978 5.33331 5.05388 5.32982C5.072 5.3091 5.07602 5.29188 5.08004 5.27466ZM6.25572 13.0827C6.25572 13.0827 6.248 13.0835 6.25618 13.1107C6.27039 13.1225 6.28461 13.1343 6.30019 13.1393C6.30019 13.1393 6.29351 13.1412 6.30453 13.1676C6.32556 13.1861 6.34659 13.2045 6.3772 13.2532C6.42108 13.2975 6.46497 13.3418 6.51983 13.4195C6.70082 13.6275 6.88181 13.8355 7.0628 14.0435C7.08359 14.0322 7.10438 14.0208 7.12517 14.0095C6.99551 13.7643 6.86585 13.5191 6.73133 13.2408C6.69874 13.1841 6.66616 13.1273 6.62875 13.038C6.61109 13.0114 6.59344 12.9847 6.57353 12.9266C6.55273 12.8904 6.53193 12.8543 6.50633 12.7831C6.44451 12.6681 6.38268 12.5531 6.32233 12.4198C6.32233 12.4198 6.30908 12.4072 6.30906 12.3799C6.2976 12.3668 6.28615 12.3536 6.27278 12.3466C6.27278 12.3466 6.27919 12.3463 6.27208 12.3093C6.15251 12.0815 6.03293 11.8538 5.90998 11.6307C5.90998 11.6307 5.91562 11.6293 5.9096 11.5922C5.8097 11.3971 5.70979 11.202 5.60792 11.0126C5.60792 11.0126 5.61402 11.0122 5.60825 10.9812C5.59207 10.9553 5.57589 10.9294 5.55769 10.9086C5.55769 10.9086 5.56298 10.9072 5.55665 10.8755C5.53563 10.8386 5.51461 10.8016 5.49332 10.7347C5.47715 10.7104 5.46098 10.686 5.44486 10.6346C5.43566 10.6195 5.42646 10.6044 5.40976 10.6018C5.40976 10.6018 5.41799 10.5889 5.41112 10.5615C5.39712 10.5372 5.38313 10.513 5.3672 10.4859C5.3672 10.4859 5.36634 10.4825 5.35564 10.448C5.24939 10.2407 5.14315 10.0334 5.03495 9.79438C5.00406 9.74018 4.97317 9.68597 4.93672 9.5973C4.90345 9.53769 4.87018 9.47807 4.83516 9.42344C4.83516 9.42344 4.84044 9.42332 4.83482 9.38917C4.80243 9.32976 4.77005 9.27036 4.73479 9.21644C4.73479 9.21644 4.74095 9.2171 4.7278 9.17433C4.70246 9.15527 4.6772 9.11969 4.65176 9.11956C4.05483 9.11644 3.45789 9.11714 2.80844 9.11714C2.93637 9.26031 3.02947 9.3645 3.13384 9.49872C3.41015 9.82269 3.6837 10.1491 3.96331 10.4702C4.70679 11.3239 5.45288 12.1754 6.2085 13.0555C6.2239 13.0671 6.2393 13.0787 6.25572 13.0827ZM14.4625 16.8264C14.4723 16.8089 14.4821 16.7915 14.5213 16.7585C14.9226 16.2543 15.4144 15.8242 15.7 15.2253C16.0918 14.4038 16.5167 13.598 16.9191 12.7814C17.0757 12.4636 17.2098 12.1347 17.3876 11.7948C17.5231 11.5303 17.6585 11.2657 17.794 11.0012C17.767 10.9858 17.7401 10.9705 17.7132 10.9551C17.5347 11.1979 17.3562 11.4407 17.1559 11.6918C17.1438 11.7034 17.1386 11.7176 17.1119 11.751C17.082 11.7968 17.0522 11.8425 16.9967 11.9019C16.9771 11.9343 16.9574 11.9667 16.9098 12.0149C16.8791 12.0583 16.8485 12.1017 16.7921 12.1578C16.7719 12.1895 16.7518 12.2211 16.7041 12.2685C16.6751 12.312 16.6462 12.3554 16.6226 12.4009C16.6226 12.4009 16.6199 12.3958 16.5904 12.4125C16.5328 12.495 16.4751 12.5776 16.422 12.6611C16.422 12.6611 16.4195 12.6573 16.3913 12.6744C16.3476 12.7371 16.3038 12.7998 16.265 12.8641C16.265 12.8641 16.2628 12.8595 16.2373 12.8708C16.2218 12.8937 16.2063 12.9167 16.1868 12.9439C16.1868 12.9439 16.1841 12.949 16.1612 12.9682C16.1403 13.0016 16.1194 13.035 16.0719 13.083C16.0331 13.1413 15.9943 13.1997 15.9286 13.2736C15.9197 13.2919 15.9108 13.3101 15.8786 13.3377C15.8654 13.3498 15.8591 13.3648 15.8331 13.3965C15.8182 13.4221 15.8033 13.4476 15.796 13.4743C15.796 13.4743 15.7945 13.4668 15.7692 13.4803C15.7615 13.4974 15.7537 13.5145 15.7511 13.5316C15.7511 13.5316 15.7499 13.5266 15.7226 13.5399C15.7006 13.5733 15.6787 13.6066 15.6537 13.6393C15.6537 13.6393 15.6554 13.6419 15.6281 13.6575C15.6109 13.6836 15.5938 13.7097 15.5584 13.7431C15.548 13.7529 15.5441 13.7649 15.5207 13.7911C15.5043 13.8146 15.4879 13.838 15.4664 13.8661C15.4664 13.8661 15.4639 13.8726 15.4396 13.8939C15.3531 14.0112 15.2666 14.1284 15.1861 14.2479C15.1861 14.2479 15.1824 14.2426 15.1539 14.2609C15.0947 14.3431 15.0355 14.4254 14.9533 14.5169C14.9408 14.5293 14.9349 14.5443 14.9077 14.5781C14.8902 14.6051 14.8728 14.6322 14.8333 14.6739C14.8156 14.7036 14.7979 14.7333 14.752 14.7799C14.7222 14.8253 14.6925 14.8708 14.6411 14.925C14.6293 14.9369 14.6244 14.9512 14.6008 14.9811C14.5802 15.0126 14.5596 15.0442 14.5216 15.0869C14.5216 15.0869 14.5189 15.1074 14.492 15.122C14.4832 15.1399 14.4743 15.1578 14.47 15.1753C14.47 15.1753 14.4688 15.1708 14.4392 15.1869C14.3945 15.2507 14.3498 15.3146 14.2831 15.3859C14.2702 15.3969 14.2646 15.4107 14.2366 15.4455C14.1413 15.5765 14.0459 15.7074 13.9559 15.8403C13.9559 15.8403 13.953 15.8354 13.9241 15.8523C13.8813 15.9172 13.8385 15.9821 13.7726 16.0548C13.7588 16.066 13.7527 16.0805 13.7265 16.1144C13.6983 16.1591 13.67 16.2039 13.6466 16.2497C13.6466 16.2497 13.6448 16.2452 13.6191 16.2573C13.6038 16.2812 13.5885 16.3051 13.5713 16.3327C13.5713 16.3327 13.5686 16.336 13.5468 16.3561C13.5278 16.3901 13.5088 16.4241 13.4633 16.4706C13.4387 16.5119 13.4142 16.5532 13.3586 16.6147C13.2428 16.9207 13.127 17.2267 12.9951 17.5563C12.9915 17.5843 12.9879 17.6124 12.9617 17.6686C12.9213 17.7964 12.8809 17.9242 12.8298 18.0781C12.8282 18.0966 12.8265 18.1151 12.7931 18.1571C12.719 18.408 12.6449 18.6588 12.5707 18.9097C12.5874 18.9213 12.6041 18.9329 12.6207 18.9444C12.7964 18.7333 12.972 18.5221 13.1748 18.299C13.197 18.2671 13.2191 18.2352 13.2667 18.1904C13.2834 18.1674 13.3001 18.1445 13.3019 18.1108C13.3019 18.1108 13.3151 18.1235 13.3428 18.1065C13.3834 18.0559 13.4239 18.0054 13.4918 17.9412C13.5284 17.8931 13.565 17.845 13.6285 17.786C13.6453 17.7627 13.6621 17.7393 13.6569 17.6961C13.6646 17.7024 13.6722 17.7086 13.7055 17.6971C13.7438 17.6479 13.7821 17.5987 13.8152 17.5482C13.8152 17.5482 13.816 17.5535 13.8427 17.5423C13.8515 17.5256 13.8602 17.5089 13.8638 17.4923C13.8638 17.4923 13.8651 17.4974 13.8928 17.484C13.9157 17.4511 13.9386 17.4182 13.9604 17.3847C13.9604 17.3847 13.9611 17.3858 13.9896 17.3689C14.0365 17.3075 14.0833 17.2461 14.1593 17.1711C14.2124 17.1044 14.2654 17.0376 14.3452 16.9593C14.3614 16.9355 14.3776 16.9117 14.387 16.8859C14.387 16.8859 14.3886 16.8929 14.4136 16.8802C14.4232 16.8645 14.4328 16.8488 14.4341 16.8316C14.4341 16.8316 14.4352 16.8399 14.4625 16.8264ZM17.0921 6.94664C17.1084 6.95519 17.1247 6.96374 17.1508 6.99702C17.1667 7.00374 17.1826 7.01046 17.2131 7.04452C17.2388 7.06134 17.2646 7.07816 17.2983 7.11369C17.3087 7.12411 17.3212 7.12809 17.3518 7.15707C17.5197 7.28708 17.6875 7.4171 17.861 7.56858C17.8706 7.58136 17.8834 7.58777 17.9148 7.61975C18.1617 7.81417 18.4087 8.00859 18.7178 8.25199C18.5559 7.63431 18.4146 7.09535 18.2742 6.51466C18.1872 6.15885 18.1097 5.80028 18.0073 5.44898C17.9781 5.34876 17.8952 5.23157 17.805 5.1875C17.4537 5.01586 17.0896 4.87047 16.7166 4.70243C16.7166 4.70243 16.6979 4.70453 16.6728 4.6764C16.6243 4.66841 16.5758 4.66043 16.5275 4.65628C16.5275 4.65628 16.5312 4.65539 16.5169 4.62307C16.3621 4.49536 16.2226 4.50002 16.081 4.65296C15.9787 4.76338 15.8581 4.85681 15.7513 4.96144C15.7513 4.96144 15.7484 4.95548 15.7154 4.96651C15.5476 5.11013 15.3798 5.25375 15.1884 5.4176C15.2842 5.48637 15.3634 5.54319 15.4482 5.62112C15.4578 5.63425 15.4706 5.63985 15.4999 5.66326C15.5168 5.67126 15.5337 5.67926 15.5513 5.68479C15.5513 5.68479 15.549 5.68602 15.5601 5.71276C15.5836 5.72934 15.6071 5.74591 15.6475 5.73667C15.642 5.74528 15.6365 5.75389 15.6462 5.78365C15.6615 5.79132 15.6768 5.79899 15.6936 5.8004C15.6936 5.8004 15.6873 5.80184 15.6993 5.82759C15.7159 5.83599 15.7325 5.8444 15.7495 5.846C15.7495 5.846 15.7428 5.84725 15.755 5.87317C15.7721 5.88092 15.7891 5.88868 15.8165 5.92296C15.8554 5.94876 15.8943 5.97457 15.9523 6.03108C16.0785 6.12952 16.2046 6.22795 16.3361 6.338C16.3361 6.338 16.3484 6.34136 16.3676 6.36571C16.4185 6.40166 16.4693 6.43763 16.5336 6.4984C16.5647 6.51813 16.5957 6.53786 16.6409 6.58385C16.666 6.59965 16.6911 6.61545 16.7183 6.62294C16.7183 6.62294 16.7098 6.62402 16.7244 6.65103C16.7419 6.66121 16.7594 6.67138 16.7927 6.7079C16.8425 6.74259 16.8923 6.77728 16.9549 6.83832C16.9796 6.85351 17.0043 6.86869 17.0299 6.87572C17.0299 6.87572 17.0218 6.87708 17.0353 6.90269C17.0528 6.91027 17.0702 6.91785 17.0877 6.91943C17.0877 6.91943 17.0817 6.92012 17.0921 6.94664ZM10.5669 6.79862C10.5807 6.81062 10.5946 6.82261 10.6101 6.82786C10.6101 6.82786 10.6034 6.82957 10.6135 6.85755C10.6344 6.87742 10.6554 6.89728 10.6807 6.94171C10.6876 6.95889 10.7003 6.96852 10.7263 6.99866C10.7413 7.01008 10.7564 7.0215 10.7723 7.02742C10.7723 7.02742 10.7668 7.02825 10.7773 7.06061C10.8447 7.13674 10.9122 7.21287 10.9822 7.3101C10.9883 7.32477 10.9993 7.33267 11.0283 7.36732C11.1949 7.56588 11.3615 7.76445 11.5371 7.95248C11.5371 7.95248 11.5259 7.96067 11.5371 7.98801C11.5579 8.00773 11.5788 8.02746 11.6039 8.07148C11.6108 8.08856 11.6235 8.09799 11.6498 8.12776C11.6647 8.13932 11.6797 8.15087 11.6956 8.15675C11.6956 8.15675 11.6899 8.15765 11.6992 8.18759C11.735 8.22472 11.7708 8.26185 11.812 8.32442C11.8255 8.33439 11.839 8.34435 11.866 8.39135C11.96 8.53071 12.0255 8.48078 12.1057 8.34718C12.1256 8.31627 12.1456 8.28537 12.1928 8.24241C12.2087 8.21749 12.2247 8.19256 12.221 8.15362C12.221 8.15362 12.2395 8.16914 12.2644 8.15203C12.2861 8.11903 12.3079 8.08602 12.3243 8.05127C12.3243 8.05127 12.327 8.05617 12.3573 8.03946C12.5717 7.7719 12.7862 7.50435 12.9956 7.23521C12.9956 7.23521 12.9972 7.24028 13.0231 7.22814C13.0311 7.21123 13.039 7.19431 13.0423 7.17754C13.0423 7.17754 13.0435 7.18208 13.0713 7.16736C13.1013 7.12516 13.1313 7.08295 13.1403 7.02295C13.1475 7.0286 13.1548 7.03424 13.1878 7.02273C13.2103 6.98877 13.2328 6.95482 13.2836 6.90731C13.3205 6.85749 13.3574 6.80766 13.4217 6.74285C13.4507 6.70036 13.4798 6.65788 13.5037 6.61332C13.5037 6.61332 13.5061 6.61826 13.5367 6.60333C13.5984 6.5215 13.6601 6.43967 13.7429 6.35062C13.7552 6.34002 13.7604 6.32666 13.7878 6.29315C13.835 6.22947 13.8822 6.16578 13.9543 6.08979C13.974 6.05918 13.9937 6.02858 14.0402 5.98587C14.0565 5.9615 14.0728 5.93714 14.0671 5.89337C14.0747 5.8995 14.0824 5.90563 14.1166 5.89096C14.2111 5.77643 14.3056 5.6619 14.4357 5.50417C13.7689 5.24262 13.1471 4.99875 12.5251 4.75873C12.5251 4.75873 12.5289 4.75796 12.5149 4.72435C12.1976 4.49666 11.8755 4.44328 11.5243 4.66319C11.3816 4.75247 11.212 4.79833 11.0553 4.86552C10.5561 5.07962 10.0571 5.29445 9.53408 5.51932C9.59921 5.59506 9.6416 5.64436 9.6951 5.72511C9.75857 5.7996 9.82203 5.87409 9.89908 5.98022C9.95153 6.03968 10.004 6.09914 10.0593 6.18024C10.0656 6.1954 10.0769 6.20348 10.1056 6.23624C10.1582 6.29421 10.2109 6.35218 10.2699 6.4372C10.2961 6.4624 10.3223 6.48759 10.3607 6.54336C10.3974 6.58287 10.4341 6.62237 10.4753 6.6862C10.483 6.70269 10.496 6.71193 10.521 6.74216C10.5356 6.754 10.5501 6.76585 10.5655 6.77074C10.5655 6.77074 10.5586 6.77175 10.5669 6.79862ZM6.89391 11.8522C6.88633 11.8382 6.87549 11.8275 6.85882 11.8129C6.85882 11.8129 6.85258 11.8084 6.83772 11.7785C6.6149 11.5007 6.42391 11.194 6.16986 10.9446C6.15364 10.9595 6.13741 10.9743 6.12119 10.9892C6.28764 11.3082 6.4541 11.6272 6.62473 11.9831C7.11798 12.9721 7.60971 13.9618 8.10557 14.9494C8.22752 15.1923 8.32711 15.4585 8.49836 15.6625C9.22108 16.5232 9.96699 17.3644 10.7158 18.241C10.7378 18.261 10.7599 18.281 10.7813 18.3054C10.7813 18.3054 10.7857 18.3055 10.7972 18.3377C10.9743 18.5452 11.1514 18.7527 11.3451 18.9796C11.3451 18.901 11.3583 18.8458 11.3431 18.8C11.1164 18.1157 10.8859 17.4326 10.6542 16.7466C10.6542 16.7466 10.6536 16.7432 10.643 16.7114C10.6225 16.6858 10.6021 16.6603 10.5773 16.6083C10.5498 16.5741 10.5223 16.5399 10.4835 16.4765C10.4621 16.4545 10.4407 16.4326 10.4151 16.3857C10.4084 16.3682 10.3958 16.3581 10.3692 16.3255C10.3412 16.2957 10.3133 16.266 10.2792 16.2445C10.2792 16.2445 10.288 16.239 10.2768 16.2112C10.2565 16.1904 10.2362 16.1696 10.2126 16.1252C10.2063 16.1087 10.1944 16.0993 10.1661 16.0632C10.0629 15.9378 9.95974 15.8125 9.85343 15.6634C9.84698 15.6467 9.8349 15.6374 9.80814 15.6054C9.76835 15.5584 9.72856 15.5113 9.68659 15.4524C9.68659 15.4524 9.67613 15.4466 9.66094 15.4187C9.62597 15.3796 9.59101 15.3405 9.55578 15.2867C9.55578 15.2867 9.54216 15.2813 9.53547 15.252C9.50805 15.2237 9.48063 15.1954 9.45065 15.1717C9.45065 15.1717 9.45582 15.1704 9.44903 15.1417C9.42349 15.1121 9.39795 15.0824 9.36976 15.0506C9.36976 15.0506 9.36887 15.0473 9.35558 15.0225C9.3355 15.0036 9.31542 14.9848 9.29415 14.9698C9.29415 14.9698 9.29817 14.9702 9.29128 14.9398C9.27609 14.9263 9.26089 14.9128 9.2439 14.8805C9.2439 14.8805 9.22783 14.8707 9.22073 14.8426C9.1941 14.8155 9.16747 14.7884 9.1384 14.7652C9.1384 14.7652 9.1428 14.7641 9.1334 14.7301C8.97596 14.5301 8.81851 14.3301 8.6589 14.1193C8.6589 14.1193 8.64945 14.1137 8.6348 14.085C8.56469 14.0019 8.49458 13.9188 8.42194 13.8401C8.42194 13.8401 8.42683 13.8386 8.41875 13.8091C8.39083 13.78 8.36291 13.7509 8.33165 13.7281C8.33165 13.7281 8.33812 13.7252 8.32754 13.6971C8.30691 13.6764 8.28628 13.6557 8.26245 13.611C8.256 13.5941 8.24375 13.5848 8.21722 13.555C8.20258 13.5427 8.18794 13.5304 8.172 13.5258C8.172 13.5258 8.17968 13.5247 8.17084 13.4968C8.15042 13.4765 8.13 13.4563 8.10501 13.4107C8.09196 13.4005 8.0789 13.3902 8.05657 13.3481C8.00752 13.289 7.95847 13.23 7.90652 13.1748C7.90652 13.1748 7.91114 13.1733 7.90179 13.1398C7.80781 13.0257 7.71382 12.9116 7.59785 12.8155C7.60535 12.8097 7.61285 12.804 7.60933 12.7709C7.58874 12.7507 7.56815 12.7305 7.54398 12.6867C7.53723 12.6702 7.52497 12.661 7.49776 12.6298C7.46967 12.6001 7.44158 12.5705 7.39323 12.5612C7.39992 12.5544 7.4066 12.5476 7.40721 12.5198C7.40018 12.5066 7.39014 12.4963 7.37517 12.4791C7.37517 12.4791 7.36682 12.4736 7.35278 12.4476C7.32113 12.4107 7.28947 12.3739 7.23849 12.3526C7.23849 12.3526 7.25844 12.3378 7.25162 12.3151C7.244 12.3007 7.23309 12.2895 7.21635 12.2776C7.21635 12.2776 7.21366 12.2737 7.20086 12.2489C7.18144 12.2301 7.16201 12.2112 7.14014 12.1967C7.14014 12.1967 7.14508 12.1956 7.13824 12.1666C7.11253 12.1366 7.08683 12.1067 7.04994 12.0813C7.04994 12.0813 7.05941 12.0738 7.04634 12.0482C7.02625 12.0287 7.00616 12.0093 6.98468 11.9937C6.98468 11.9937 6.98877 11.9935 6.98244 11.9656C6.96815 11.9538 6.95386 11.942 6.93829 11.9369C6.93829 11.9369 6.94507 11.9363 6.93789 11.9095C6.92465 11.8971 6.91141 11.8848 6.88957 11.8851C6.88957 11.8851 6.90043 11.8743 6.89391 11.8522ZM17.4144 12.8157C17.4101 12.8334 17.4058 12.8511 17.3887 12.8762C17.3887 12.8762 17.3918 12.8907 17.3639 12.9131C17.3511 12.9464 17.3384 12.9796 17.333 13.0134C17.333 13.0134 17.3307 13.0064 17.3044 13.03C17.1547 13.3363 17.005 13.6426 16.8554 13.949C16.8764 13.9625 16.8975 13.9759 16.9186 13.9894C17.1009 13.7717 17.2832 13.5539 17.4929 13.3218C17.5297 13.273 17.5665 13.2242 17.6301 13.1637C17.6463 13.1397 17.6626 13.1157 17.6704 13.0888C17.6704 13.0888 17.6711 13.0977 17.6991 13.0818C17.7108 13.064 17.7225 13.0463 17.7611 13.0107C18.6503 11.9858 19.5402 10.9616 20.4278 9.93528C20.5208 9.82767 20.6 9.70805 20.717 9.58299C20.7324 9.56805 20.7478 9.5531 20.7806 9.53436C20.7915 9.52636 20.7952 9.51582 20.8229 9.48454C20.9173 9.37245 21.0117 9.26036 21.1361 9.11269C20.8313 9.11269 20.5867 9.10809 20.3424 9.11375C19.9727 9.12232 19.6031 9.13802 19.2071 9.17389C19.1666 9.26786 19.126 9.36184 19.0568 9.47984C18.9167 9.77155 18.7766 10.0632 18.6149 10.3811C18.5842 10.4529 18.5535 10.5248 18.4962 10.6151C18.479 10.6547 18.4619 10.6943 18.4405 10.7396C18.4405 10.7396 18.4399 10.7467 18.4218 10.7719C18.4037 10.8198 18.3856 10.8677 18.3718 10.916C18.3718 10.916 18.3694 10.9124 18.3438 10.9309C18.334 10.9605 18.3241 10.99 18.2906 11.034C18.2827 11.06 18.2748 11.0859 18.2398 11.1341C18.2121 11.1979 18.1844 11.2618 18.132 11.3424C18.1233 11.3706 18.1146 11.3989 18.0817 11.4445C18.0735 11.4728 18.0652 11.5012 18.0616 11.5296C18.0616 11.5296 18.0591 11.5257 18.0318 11.5489C17.9567 11.7155 17.8816 11.882 17.7985 12.0541C17.7985 12.0541 17.8016 12.0632 17.7744 12.0846C17.7686 12.1065 17.7628 12.1285 17.7341 12.1689C17.7246 12.1959 17.7151 12.2229 17.6799 12.2707C17.6633 12.3114 17.6466 12.3522 17.6362 12.3947C17.6362 12.3947 17.6342 12.3885 17.61 12.4126C17.5744 12.4965 17.5387 12.5803 17.4907 12.6721C17.4907 12.6721 17.4949 12.6862 17.4671 12.7092C17.4551 12.7431 17.4431 12.777 17.4406 12.8106C17.4406 12.8106 17.4384 12.8014 17.4144 12.8157ZM15.0104 4.94142C15.0104 4.94142 15.0136 4.93857 15.0396 4.92699C15.0583 4.90675 15.0771 4.88651 15.1186 4.86087C15.134 4.85373 15.1432 4.84177 15.1794 4.81335C15.2995 4.7137 15.4195 4.61405 15.5829 4.47845C14.7641 4.47845 14.0123 4.47845 13.2606 4.47845C13.2574 4.49314 13.2542 4.50783 13.2511 4.52252C13.4537 4.59946 13.6563 4.6764 13.8785 4.76482C13.8785 4.76482 13.9013 4.76431 13.9247 4.79017C13.9685 4.80486 14.0124 4.81955 14.0836 4.85608C14.2649 4.92697 14.4463 4.99787 14.6552 5.09262C14.7992 5.18179 14.8741 5.07777 14.9432 4.9736C14.9432 4.9736 14.955 4.98448 14.9775 4.97872C14.992 4.97112 15.0018 4.95957 15.0104 4.94142ZM11.435 17.517C11.435 17.517 11.4476 17.5384 11.4455 17.5783C11.6167 18.1068 11.7879 18.6354 11.9759 19.2159C12.2381 18.3918 12.4865 17.6305 12.7187 16.8644C12.7638 16.7157 12.7725 16.5446 12.753 16.3895C12.5784 15.0007 12.3943 13.613 12.2115 12.2253C12.1415 11.6941 12.0673 11.1634 11.995 10.6325C11.976 10.6325 11.9571 10.6325 11.9381 10.6326C11.8945 11.0189 11.8509 11.4053 11.7937 11.8309C11.695 12.5121 11.5935 13.193 11.4985 13.8747C11.4148 14.4757 11.3402 15.0779 11.2583 15.6792C11.1835 16.2277 11.0735 16.7778 11.3762 17.3289C11.384 17.3472 11.3919 17.3656 11.3952 17.4144C11.4082 17.4403 11.4211 17.4663 11.435 17.517ZM8.98267 4.99805C9.0038 5.01285 9.02493 5.02766 9.05178 5.05433C9.05178 5.05433 9.06471 5.05679 9.08841 5.08501C9.2819 5.03085 9.47539 4.9767 9.70427 4.91855C9.84378 4.85814 9.98328 4.79773 10.1611 4.72785C10.3379 4.66058 10.5146 4.59331 10.6913 4.52604C10.6863 4.50911 10.6814 4.49218 10.6765 4.47525C9.92764 4.47525 9.1788 4.47525 8.35103 4.47525C8.49316 4.58247 8.58244 4.64982 8.68204 4.73999C8.69378 4.75335 8.70853 4.76036 8.73971 4.78629C8.76987 4.80858 8.80003 4.83087 8.84026 4.86904C8.84026 4.86904 8.85868 4.87274 8.87268 4.90185C8.90731 4.9263 8.94194 4.95075 8.98022 4.96937C8.98022 4.96937 8.97454 4.97323 8.98267 4.99805ZM5.92724 9.81735C5.92724 9.81735 5.92914 9.82094 5.94445 9.84943C5.98021 9.88918 6.01597 9.92892 6.05338 9.98716C6.05338 9.98716 6.07005 9.99532 6.07699 10.0238C6.1043 10.0504 6.13161 10.0771 6.16747 10.1372C6.47235 10.537 6.77369 10.9395 7.08276 11.3361C7.98846 12.4981 8.89725 13.6577 9.81444 14.8518C9.92305 14.9932 10.0317 15.1345 10.1403 15.2759C10.1572 15.2676 10.1741 15.2594 10.1911 15.2511C10.1178 15.0507 10.0445 14.8502 9.96955 14.657C9.96955 14.657 9.97697 14.6564 9.97359 14.6209C9.95202 14.5666 9.93045 14.5123 9.91019 14.4233C9.88429 14.3479 9.85838 14.2726 9.82399 14.157C9.72257 13.858 9.62115 13.559 9.52145 13.2666C9.52145 13.2666 9.52399 13.2602 9.51678 13.2217C9.24225 12.4139 8.96772 11.6061 8.69273 10.8061C8.69273 10.8061 8.70003 10.8034 8.69312 10.764C8.58475 10.4563 8.47638 10.1485 8.37052 9.81126C8.35851 9.78527 8.34651 9.75928 8.33056 9.69758C8.30849 9.64264 8.28641 9.5877 8.26715 9.50311C8.25417 9.47762 8.24118 9.45213 8.2262 9.39535C8.2147 9.36641 8.20321 9.33748 8.19169 9.30592C8.19169 9.30592 8.19254 9.30344 8.18402 9.26214C8.16648 9.10821 8.05869 9.11408 7.94137 9.11452C7.15727 9.11751 6.37314 9.11553 5.58903 9.11692C5.53594 9.11701 5.48287 9.13139 5.39733 9.14385C5.54598 9.32884 5.67254 9.48635 5.8012 9.66695C5.80744 9.68338 5.81934 9.69198 5.84614 9.72185C5.87225 9.75269 5.89837 9.78354 5.92724 9.81735ZM10.454 14.5647C10.5589 14.8817 10.6638 15.1987 10.7687 15.5157C10.785 15.5131 10.8013 15.5105 10.8176 15.5079C10.8498 15.2439 10.882 14.98 10.9277 14.6791C10.9279 14.6401 10.9282 14.6011 10.9424 14.5228C10.9903 14.1937 11.0446 13.8653 11.0848 13.5351C11.1588 12.927 11.2169 12.3168 11.2963 11.7094C11.3488 11.3073 11.4268 10.9085 11.5066 10.4692C11.533 10.277 11.5593 10.0849 11.5995 9.85604C11.6005 9.81711 11.6015 9.77817 11.622 9.70366C11.651 9.51432 11.6799 9.32498 11.7107 9.12415C10.6787 9.12415 9.67745 9.12415 8.63495 9.12415C8.84028 9.71353 9.03758 10.2799 9.22788 10.8584C9.22788 10.8584 9.2387 10.8673 9.23864 10.9073C9.40539 11.3951 9.57214 11.8828 9.74092 12.3646C9.74092 12.3646 9.73463 12.365 9.73941 12.405C9.97682 13.1128 10.2142 13.8207 10.4534 14.5226C10.4534 14.5226 10.4479 14.5255 10.454 14.5647ZM14.8465 10.4144C14.8465 10.4144 14.8486 10.4228 14.8736 10.3947C15.0154 9.97714 15.1572 9.55959 15.3031 9.13014C14.2721 9.13014 13.2629 9.13014 12.2361 9.13014C12.4033 10.2864 12.5678 11.4235 12.7261 12.5955C12.7313 12.6182 12.7364 12.641 12.7376 12.7062C12.8696 13.6413 13.0015 14.5764 13.1335 15.5115C13.1455 15.5115 13.1574 15.5115 13.1693 15.5114C13.3111 15.0753 13.4528 14.6391 13.6131 14.1752C13.6238 14.133 13.6344 14.0908 13.663 14.0151C14.0604 12.8153 14.4577 11.6155 14.8465 10.4144ZM15.2456 6.09983C15.2334 6.1026 15.2212 6.10537 15.209 6.10815C15.2156 6.12587 15.2221 6.1436 15.2307 6.2021C15.4259 7.01903 15.6212 7.83597 15.8138 8.64202C16.6974 8.64202 17.5448 8.64202 18.4711 8.64202C17.366 7.76998 16.3172 6.94232 15.2456 6.09983ZM15.7084 9.40406C15.0621 11.3242 14.4159 13.2443 13.7697 15.1645C13.8599 15.1409 13.9294 15.0906 13.98 15.0256C14.7569 14.0279 15.5341 13.0306 16.3053 12.0286C16.9822 11.1492 17.6518 10.264 18.3556 9.3649C18.4087 9.29359 18.4619 9.22227 18.5422 9.11441C18.4309 9.11441 18.366 9.11437 18.301 9.11441C17.5447 9.11491 16.7882 9.12317 16.032 9.11083C15.8256 9.10746 15.7324 9.17449 15.7084 9.40406ZM7.63021 4.51666C7.15516 4.72662 6.68399 4.94614 6.20299 5.14146C6.02968 5.21184 5.95377 5.31972 5.91322 5.48925C5.71105 6.3345 5.50224 7.17816 5.29751 8.02281C5.2852 8.0736 5.28795 8.12804 5.28111 8.21275C6.44896 7.27196 7.58835 6.35411 8.75776 5.41207C8.38245 5.10119 8.02468 4.80484 7.63021 4.51666ZM13.7809 8.65567C14.2876 8.65567 14.7943 8.65567 15.3379 8.65567C15.1166 7.73869 14.9063 6.86733 14.682 5.93805C13.9269 6.86305 13.2142 7.73617 12.4635 8.65576C12.9325 8.65576 13.331 8.65576 13.7809 8.65567ZM9.07681 6.72678C8.92378 7.35993 8.77076 7.99307 8.61449 8.63965C9.57881 8.63965 10.5025 8.63965 11.4671 8.63965C10.7237 7.73494 10.0049 6.86019 9.26096 5.95472C9.19259 6.23833 9.13869 6.46187 9.07681 6.72678ZM5.81184 8.39064C5.72413 8.46277 5.63643 8.5349 5.50847 8.64014C6.41945 8.64014 7.26725 8.64014 8.12657 8.64014C8.33202 7.7854 8.53413 6.94454 8.73624 6.10368C8.72097 6.09357 8.7057 6.08346 8.69044 6.07335C7.74014 6.83759 6.78985 7.60183 5.81184 8.39064ZM4.07862 7.16922C3.6559 7.65033 3.23318 8.13144 2.77942 8.64788C3.44795 8.64788 4.05052 8.64788 4.66755 8.64788C4.89763 7.69264 5.12624 6.74352 5.35484 5.79441C5.34191 5.78677 5.32898 5.77912 5.31606 5.77148C4.91152 6.22824 4.50698 6.68499 4.07862 7.16922ZM18.9952 7.4998C19.0784 7.83051 19.1564 8.16271 19.2495 8.49064C19.2674 8.55385 19.3434 8.64644 19.3941 8.64744C19.9611 8.65864 20.5283 8.65451 21.1116 8.65451C20.8941 8.25323 18.7629 5.89111 18.6063 5.85732C18.7325 6.38819 18.8597 6.92303 18.9952 7.4998ZM16.8659 13.975C16.8479 13.993 16.8299 14.0111 16.8118 14.0291C16.8373 14.0222 16.8629 14.0152 16.8659 13.975Z" fill="currentColor"/>
</svg>
