<svg width="24" height="24" viewBox="0 0 24 24" fill="none" xmlns="http://www.w3.org/2000/svg">
<path d="M12.1544 8C12.3227 8.00677 12.491 8.01354 12.7232 8.01866C14.4468 8.01173 16.1066 8.00645 17.7663 8.00116C17.817 8.00837 17.8676 8.01558 17.9651 8.02122C18.0275 8.01651 18.0431 8.01338 18.0586 8.01025C20.0885 8.22147 21.4653 9.28332 22.0696 11.2317C22.9482 14.0645 20.8334 16.9592 17.8728 16.9806C14.0624 17.0081 10.2517 17.0035 6.44121 16.9845C4.04569 16.9726 2.08388 15.0756 2.00297 12.7511C1.91821 10.3159 3.65642 8.25692 6.02589 8.03575C6.08468 8.02674 6.0971 8.02268 6.10952 8.01863C6.18208 8.01997 6.25465 8.02131 6.38672 8.0205C7.28053 8.01301 8.11484 8.00766 8.94915 8.00231C8.99931 8.009 9.04947 8.01568 9.15734 8.02075C9.58763 8.0129 9.96021 8.00665 10.3328 8.00041C10.4296 8.00722 10.5265 8.01403 10.6848 8.01921C11.2157 8.01172 11.685 8.00586 12.1544 8ZM18.6216 16.2991C20.4427 15.9402 21.8182 14.126 21.6685 12.2804C21.4975 10.1711 19.925 8.63288 17.862 8.62332C14.051 8.60566 10.2398 8.6054 6.42891 8.62746C3.87898 8.64222 2.09273 11.0043 2.71695 13.4827C3.1561 15.2264 4.62239 16.3265 6.64586 16.4244C6.85061 16.4144 7.05535 16.3959 7.2601 16.3958C10.6287 16.3943 13.9973 16.3954 17.3659 16.3944C17.5225 16.3943 17.679 16.3793 17.8914 16.3875C17.9678 16.3784 18.0442 16.3693 18.1776 16.37C18.3063 16.3458 18.4351 16.3215 18.6216 16.2991Z" fill="currentColor"/>
<path d="M15.5358 13.333C15.0283 13.815 14.4342 13.8996 13.9298 13.5792C13.4529 13.2763 13.2279 12.6497 13.4027 12.1113C13.5799 11.5655 14.1142 11.2103 14.698 11.2535C15.6375 11.3231 16.214 12.4969 15.5358 13.333Z" fill="currentColor"/>
<path d="M10.862 12.9412C10.5396 13.6079 10.024 13.8775 9.3818 13.7342C8.86575 13.619 8.4517 13.0967 8.43603 12.5412C8.41998 11.9719 8.80551 11.4435 9.35377 11.292C10.2832 11.0353 11.1772 11.8917 10.862 12.9412Z" fill="currentColor"/>
</svg>
